<svg width="631" height="632" viewBox="0 0 631 632" fill="none" xmlns="http://www.w3.org/2000/svg">
<g clip-path="url(#clip0_503_2420)">
<path d="M219.993 0.485291H411.007C474.354 0.485291 506.02 0.485291 540.12 11.2649C577.349 24.8156 606.67 54.1361 620.22 91.3651C631 125.46 631 157.136 631 220.478V411.492C631 474.839 631 506.505 620.22 540.605C606.67 577.834 577.349 607.155 540.12 620.7C506.02 631.485 474.354 631.485 411.007 631.485H219.993C156.646 631.485 124.975 631.485 90.8798 620.7C53.6508 607.155 24.3303 577.834 10.7796 540.605C0 506.505 0 474.839 0 411.492V220.478C0 157.136 0 125.46 10.7796 91.3651C24.3303 54.1361 53.6508 24.8156 90.8798 11.2649C124.975 0.485291 156.646 0.485291 219.993 0.485291Z" fill="#131419"/>
<path d="M269.694 225.723V182.558C269.671 180.652 270.141 178.772 271.059 177.102C271.977 175.431 273.311 174.026 274.932 173.023L312.335 151.441C314.012 150.491 315.907 149.991 317.835 149.991C319.763 149.991 321.658 150.491 323.336 151.441L457.493 228.917C459.118 229.916 460.455 231.321 461.374 232.992C462.292 234.664 462.76 236.545 462.732 238.452V281.564C462.764 283.479 462.298 285.369 461.379 287.05C460.461 288.73 459.122 290.144 457.493 291.151L420.143 312.733C418.458 313.688 416.553 314.191 414.616 314.191C412.679 314.191 410.775 313.688 409.09 312.733L274.932 235.257C273.307 234.258 271.97 232.854 271.052 231.182C270.133 229.511 269.665 227.63 269.694 225.723V225.723Z" fill="#FCFCFD"/>
<path d="M366.4 399.902V449.406C366.423 451.312 365.952 453.191 365.034 454.862C364.117 456.532 362.782 457.938 361.161 458.94L323.811 480.522C322.125 481.477 320.221 481.979 318.284 481.979C316.347 481.979 314.443 481.477 312.758 480.522L275.407 458.94C273.786 457.938 272.452 456.532 271.534 454.862C270.616 453.191 270.146 451.312 270.169 449.406V294.503C270.141 292.596 270.609 290.715 271.527 289.043C272.445 287.372 273.782 285.969 275.407 284.97L318.415 260.087L366.819 288.06L366.4 399.902Z" fill="#FCFCFD"/>
<path d="M269.746 281.722V238.557C269.753 236.617 269.241 234.71 268.265 233.034C267.289 231.358 265.883 229.974 264.193 229.022L226.843 207.441C225.174 206.465 223.276 205.951 221.343 205.951C219.409 205.951 217.511 206.465 215.842 207.441L178.491 229.022C176.801 229.974 175.395 231.358 174.419 233.034C173.443 234.71 172.932 236.617 172.938 238.557V281.827C172.942 283.764 173.458 285.666 174.433 287.34C175.408 289.014 176.808 290.402 178.491 291.361L215.842 312.943C217.519 313.894 219.415 314.393 221.343 314.393C223.27 314.393 225.165 313.894 226.843 312.943L264.193 291.361C265.892 290.393 267.301 288.99 268.277 287.296C269.253 285.601 269.761 283.677 269.746 281.722V281.722Z" fill="#FCFCFD"/>
</g>
<defs>
<clipPath id="clip0_503_2420">
<rect width="631" height="631" fill="white" transform="translate(0 0.485291)"/>
</clipPath>
</defs>
</svg>
